PathFileType	4	(X/Y/Z)
DataRate	CameraRate	NumFrames	NumMarkers	Units	OrigDataRate	OrigDataStartFrame	OrigNumFrames	
	120.0	120.0	5	39	mm	120.0	113	225
Frame#	Time	midhip	hip_r	hip_l	knee_r	knee_l	ankle_r	ankle_l	midasis	asis_r	asis_l	psis_r	psis_l	epicondLat_r	epicondLat_l	epicondMed_r	epicondMed_l	malleolusLat_r	malleolusLat_l	malleolusMedv_r	malleolusMedv_l	heel_r	heel_l	sternalnotch	xyphoidprocess	neck	subclavicle_r	subclavicle_l	toe_r	toe_l	thighwand_r	thighwand_l	upperleg1_r	upperleg1_l	upperleg2_r	upperleg2_l	shankwand_r	shankwand_l	lowerleg1_r	lowerleg1_l
	X1	Y1	Z1	X2	Y2	Z2	X3	Y3	Z3	X4	Y4	Z4	X5	Y5	Z5	X6	Y6	Z6	X7	Y7	Z7	X8	Y8	Z8	X9	Y9	Z9	X10	Y10	Z10	X11	Y11	Z11	X12	Y12	Z12	X13	Y13	Z13	X14	Y14	Z14	X15	Y15	Z15	X16	Y16	Z16	X17	Y17	Z17	X18	Y18	Z18	X19	Y19	Z19	X20	Y20	Z20	X21	Y21	Z21	X22	Y22	Z22	X23	Y23	Z23	X24	Y24	Z24	X25	Y25	Z25	X26	Y26	Z26	X27	Y27	Z27	X28	Y28	Z28	X29	Y29	Z29	X30	Y30	Z30	X31	Y31	Z31	X32	Y32	Z32	X33	Y33	Z33	X34	Y34	Z34	X35	Y35	Z35	X36	Y36	Z36	X37	Y37	Z37	X38	Y38	Z38	X39	Y39	Z39

	113	0.94167	710.625	911.223	-269.869	709.419	892.099	-221.463	706.797	893.983	-327.984	702.275	479.746	-198.753	703.727	482.315	-361.290	624.874	70.305	-178.776	655.664	68.844	-357.764	777.169	996.993	-274.585	779.792	995.108	-168.019	774.545	998.878	-381.151	574.454	1003.166	-225.368	570.688	1005.147	-313.546	714.770	482.729	-140.656	708.629	487.061	-420.398	688.661	501.172	-257.043	691.856	491.405	-314.231	623.019	72.505	-140.885	651.793	68.958	-397.074	621.693	70.727	-209.624	663.325	75.593	-328.489	580.199	45.666	-190.075	609.961	44.948	-355.840	690.631	1392.803	-281.299	734.859	1192.672	-283.885	601.458	1460.774	-287.486	704.238	1393.872	-199.466	701.864	1390.102	-355.543	745.178	42.976	-182.806	783.202	42.719	-373.262	753.881	602.040	-67.980	850.356	625.771	-360.422	764.221	660.004	-140.952	775.265	685.570	-396.986	760.952	578.026	-161.795	765.391	599.362	-399.310	653.164	143.902	-77.202	768.883	172.710	-357.054	643.435	202.553	-139.917	703.632	226.180	-365.079
	114	0.95000	710.611	911.229	-269.792	709.390	892.093	-221.429	706.725	893.995	-327.948	702.230	479.735	-198.716	703.257	482.319	-361.416	624.867	70.253	-178.766	655.617	68.821	-357.783	777.168	996.964	-274.562	779.834	995.061	-168.008	774.502	998.866	-381.117	574.506	1003.240	-225.224	570.691	1005.206	-313.418	714.738	482.718	-140.622	708.193	487.083	-420.519	688.566	501.157	-257.000	691.358	491.431	-314.341	623.020	72.448	-140.875	651.767	68.919	-397.094	621.671	70.647	-209.578	663.310	75.548	-328.526	580.197	45.641	-190.047	609.986	44.885	-355.842	690.795	1392.710	-281.374	734.928	1192.560	-284.149	601.548	1460.786	-287.491	704.522	1393.721	-199.587	701.918	1390.050	-355.609	745.182	42.951	-182.811	783.263	42.563	-373.167	753.883	602.019	-67.956	849.985	625.648	-360.422	764.261	659.951	-140.968	775.026	685.525	-397.025	760.927	577.998	-161.779	765.066	599.307	-399.359	653.190	143.863	-77.183	768.749	172.834	-357.127	643.472	202.430	-139.854	703.421	226.190	-365.162
	115	0.95833	710.585	911.168	-269.797	709.368	892.065	-221.406	706.642	893.983	-327.923	702.187	479.704	-198.689	702.804	482.299	-361.534	624.884	70.161	-178.770	655.578	68.774	-357.798	777.171	996.906	-274.565	779.898	994.988	-168.022	774.445	998.824	-381.107	574.602	1003.286	-225.059	570.692	1005.259	-313.294	714.713	482.686	-140.599	707.768	487.078	-420.634	688.491	501.109	-257.005	691.022	491.277	-314.467	623.048	72.350	-140.878	651.746	68.857	-397.111	621.652	70.521	-209.482	663.325	75.459	-328.559	580.195	45.601	-190.023	609.942	44.864	-355.840	691.001	1392.428	-281.453	734.818	1192.219	-284.859	601.623	1460.801	-287.490	704.899	1393.197	-199.729	701.966	1389.952	-355.683	745.197	42.907	-182.819	783.347	42.348	-373.044	753.908	601.973	-67.950	849.651	625.522	-360.440	764.302	659.859	-140.995	774.674	685.399	-397.071	760.918	577.914	-161.801	764.740	599.204	-399.429	653.239	143.805	-77.170	768.638	172.915	-357.191	643.663	202.290	-139.838	703.240	226.133	-365.244
	116	0.96667	710.548	911.037	-269.925	709.358	892.026	-221.394	706.558	893.957	-327.910	702.139	479.667	-198.670	702.376	482.268	-361.645	624.920	70.057	-178.783	655.542	68.718	-357.813	777.179	996.837	-274.588	779.980	994.905	-168.056	774.379	998.769	-381.121	574.760	1003.303	-224.867	570.689	1005.315	-313.171	714.690	482.648	-140.585	707.360	487.060	-420.741	688.427	501.053	-257.020	690.731	491.029	-314.633	623.099	72.240	-140.890	651.722	68.786	-397.128	621.643	70.414	-209.400	663.405	75.354	-328.588	580.195	45.561	-190.005	609.830	44.898	-355.839	691.050	1392.308	-281.542	734.625	1192.047	-285.038	601.703	1460.831	-287.481	704.947	1393.022	-199.857	702.014	1389.853	-355.732	745.219	42.858	-182.826	783.414	42.165	-372.965	753.950	601.916	-67.961	849.352	625.405	-360.480	764.355	659.759	-141.013	774.261	685.248	-397.084	760.920	577.802	-161.830	764.379	599.089	-399.512	653.301	143.743	-77.162	768.540	172.971	-357.250	643.953	202.161	-139.839	703.060	226.040	-365.290
	117	0.97500	710.531	910.907	-270.147	709.359	891.990	-221.394	706.478	893.936	-327.907	702.077	479.637	-198.653	701.976	482.246	-361.746	624.954	69.969	-178.797	655.502	68.671	-357.831	777.190	996.775	-274.627	780.071	994.828	-168.103	774.308	998.722	-381.151	574.961	1003.303	-224.662	570.679	1005.378	-313.050	714.661	482.618	-140.575	706.973	487.049	-420.841	688.354	500.973	-257.013	690.441	490.840	-314.751	623.152	72.144	-140.902	651.690	68.727	-397.146	621.644	70.346	-209.357	663.512	75.257	-328.615	580.196	45.532	-189.990	609.653	44.988	-355.837	691.133	1392.193	-281.569	734.455	1191.879	-285.168	601.805	1460.873	-287.456	705.073	1392.857	-199.904	702.055	1389.755	-355.754	745.240	42.819	-182.831	783.422	42.097	-372.985	753.999	601.866	-67.986	849.083	625.309	-360.539	764.395	659.646	-141.028	773.895	685.117	-397.095	760.917	577.685	-161.849	764.033	598.996	-399.582	653.362	143.694	-77.160	768.446	173.025	-357.313	644.245	202.060	-139.844	702.842	225.944	-365.294
